<svg width="164" height="32" viewBox="0 0 164 32" fill="none" xmlns="http://www.w3.org/2000/svg">
<path d="M7.04906 7.83392H10.4166V20.3607C10.4166 20.9751 10.5766 21.44 10.8996 21.7554C11.2211 22.0709 11.674 22.2279 12.2581 22.2279C12.886 22.2279 13.3509 22.0558 13.6498 21.7132C13.9487 21.3705 14.0981 20.9117 14.0981 20.3396V7.83392H17.4657V20.2294C17.4657 20.8301 17.3766 21.3826 17.1955 21.8837C17.0159 22.3849 16.7275 22.8181 16.3306 23.1834C15.9336 23.5486 15.4219 23.8309 14.7925 24.0317C14.1645 24.2324 13.4008 24.332 12.5026 24.332C11.4551 24.332 10.6279 24.1932 10.0226 23.9139C9.41736 23.6347 8.98566 23.3237 8.73208 22.9796C8.47698 23.3237 8.04679 23.6347 7.44151 23.9139C6.83622 24.1932 6.00755 24.332 4.96151 24.332C4.0634 24.332 3.29962 24.2324 2.6717 24.0317C2.04377 23.8309 1.53057 23.5486 1.13358 23.1834C0.736603 22.8181 0.448302 22.3849 0.268679 21.8837C0.0890564 21.3826 0 20.8317 0 20.2294V7.83392H3.36755V20.3396C3.36755 20.9117 3.51698 21.369 3.81585 21.7132C4.11472 22.0558 4.57962 22.2279 5.20755 22.2279C5.7917 22.2279 6.24302 22.0709 6.56604 21.7554C6.88755 21.4415 7.04906 20.9766 7.04906 20.3607V7.83392V7.83392Z" fill="white"/>
<path d="M20.6747 7.83392H29.6543V9.93959H24.0423V14.4935H29.3177V16.5992H24.0423V21.9049H29.8793V24.0105H20.6762V7.83392H20.6747Z" fill="white"/>
<path d="M39.4642 11.4822C39.4642 10.8679 39.3026 10.403 38.9811 10.0875C38.6596 9.77355 38.2068 9.61506 37.6226 9.61506C36.9947 9.61506 36.5298 9.78713 36.2309 10.1298C35.9321 10.4724 35.7826 10.9313 35.7826 11.5034V24.009H32.4151V11.6136C32.4151 11.0128 32.5042 10.4603 32.6838 9.95921C32.8634 9.45808 33.1517 9.02487 33.5487 8.65959C33.9457 8.2943 34.4574 8.01204 35.0868 7.81129C35.7147 7.61053 36.4785 7.51091 37.3766 7.51091C38.4242 7.51091 39.2513 7.65129 39.8566 7.93053C40.4634 8.20978 40.8921 8.52072 41.1472 8.86487C41.4023 8.52072 41.8325 8.20978 42.4377 7.93053C43.0445 7.65129 43.8702 7.51091 44.9177 7.51091C45.8158 7.51091 46.5781 7.61053 47.2075 7.81129C47.837 8.01204 48.3487 8.2943 48.7457 8.65959C49.1426 9.02487 49.4309 9.45808 49.6106 9.95921C49.7902 10.4603 49.8808 11.0113 49.8808 11.6136V24.009H46.5132V11.5034C46.5132 10.9313 46.3638 10.4739 46.0649 10.1298C45.766 9.78713 45.3011 9.61506 44.6732 9.61506C44.0891 9.61506 43.6362 9.77204 43.3147 10.0875C42.9932 10.403 42.8317 10.8664 42.8317 11.4822V24.009H39.4642V11.4822V11.4822Z" fill="white"/>
<path d="M56.4574 24.009H53.0898V7.83241H56.4574V24.009Z" fill="white"/>
<path d="M58.8815 7.83392H62.2717L64.6294 12.8603L66.9645 7.83392H70.3774L66.314 15.8249L70.5343 24.009H67.0325L64.6309 18.6596L62.2294 24.009H58.7276L62.9479 15.8249L58.8845 7.83392H58.8815Z" fill="white"/>
<path d="M125.807 13.8882C125.807 15.0369 125.422 15.9365 124.651 16.5901C123.879 17.2437 122.604 17.5697 120.823 17.5697H118.085V24.0362H114.717V7.85956H120.823C121.721 7.85956 122.485 7.94559 123.112 8.11767C123.74 8.28975 124.254 8.53427 124.651 8.84975C125.048 9.16522 125.339 9.55012 125.526 10.0014C125.713 10.4543 125.807 10.966 125.807 11.5411V13.8882ZM118.085 15.4641H120.374C121.138 15.4641 121.672 15.3041 121.979 14.9826C122.285 14.6611 122.439 14.1947 122.439 13.5803V11.8475C122.439 11.2346 122.282 10.7667 121.968 10.4467C121.654 10.1252 121.115 9.96522 120.352 9.96522H118.085V15.4641V15.4641Z" fill="white"/>
<path d="M128.343 7.85956H131.71V21.9305H137.547V24.0362H128.344V7.85956H128.343Z" fill="white"/>
<path d="M143.069 19.052L142.261 24.0362H138.759L141.654 7.85956H148.658L151.553 24.0362H148.051L147.244 19.052H143.069V19.052ZM146.93 16.9463L145.763 9.96522H144.551L143.384 16.9463H146.931H146.93Z" fill="white"/>
<path d="M155.641 24.0347V17.7614L151.309 7.85805H154.765L157.324 14.883L159.882 7.85805H163.339L159.007 17.7614V24.0347H155.639H155.641Z" fill="white"/>
<path d="M81.5094 9.35849V28.2083L87.8491 32V13.1502L81.5094 9.35849Z" fill="#F54977"/>
<path d="M81.5094 0V7.39623L100.542 18.7774L106.264 14.803L81.5094 0Z" fill="#FF6690"/>
<path d="M89.5094 26.4422L100.542 18.7773L94.5872 15.2165L89.5094 18.7441V26.4422Z" fill="#FFB3C7"/>
</svg>
